<?xml version="1.0" encoding="UTF-8" standalone="no"?>
<!DOCTYPE svg PUBLIC "-//W3C//DTD SVG 1.1//EN"
 "http://www.w3.org/Graphics/SVG/1.1/DTD/svg11.dtd">
<!-- Generated by graphviz version 2.26.3 (20100126.1600)
 -->
<!-- Title: extended Pages: 1 -->
<svg width="450pt" height="148pt"
 viewBox="0.00 0.00 450.00 147.86" xmlns="http://www.w3.org/2000/svg" xmlns:xlink="http://www.w3.org/1999/xlink">
<g id="graph1" class="graph" transform="scale(0.714286 0.714286) rotate(0) translate(4 203)">
<title>extended</title>
<polygon fill="white" stroke="white" points="-4,5 -4,-203 627,-203 627,5 -4,5"/>
<text text-anchor="middle" x="311" y="-8.4" font-family="Sans" font-size="14.00">Creation Of The Master Keys</text>
<g id="graph2" class="cluster"><title>cluster_y</title>
</g>
<g id="graph3" class="cluster"><title>cluster_x</title>
</g>
<!-- entropy -->
<g id="node1" class="node"><title>entropy</title>
<polygon fill="none" stroke="black" stroke-width="1.75" points="96,-174 3.55271e-14,-174 0,-98 96,-98 96,-174"/>
<text text-anchor="middle" x="48" y="-157.4" font-family="Sans" font-size="14.00">128, 256,</text>
<text text-anchor="middle" x="48" y="-140.4" font-family="Sans" font-size="14.00">Or 512 Bits</text>
<text text-anchor="middle" x="48" y="-123.4" font-family="Sans" font-size="14.00">Of Entropy</text>
<text text-anchor="middle" x="48" y="-106.4" font-family="Sans" font-size="14.00">(The Seed)</text>
</g>
<!-- hmac -->
<g id="node2" class="node"><title>hmac</title>
<polygon fill="none" stroke="black" stroke-width="1.75" points="194,-165.5 114,-165.5 114,-106.5 194,-106.5 194,-165.5"/>
<polyline fill="none" stroke="black" stroke-width="1.75" points="126,-165.5 114,-153.5 "/>
<polyline fill="none" stroke="black" stroke-width="1.75" points="114,-118.5 126,-106.5 "/>
<polyline fill="none" stroke="black" stroke-width="1.75" points="182,-106.5 194,-118.5 "/>
<polyline fill="none" stroke="black" stroke-width="1.75" points="194,-153.5 182,-165.5 "/>
<text text-anchor="middle" x="154" y="-148.9" font-family="Sans" font-size="14.00">512&#45;Bit</text>
<text text-anchor="middle" x="154" y="-131.9" font-family="Sans" font-size="14.00">One&#45;Way</text>
<text text-anchor="middle" x="154" y="-114.9" font-family="Sans" font-size="14.00">Hash</text>
</g>
<!-- entropy&#45;&gt;hmac -->
<g id="edge2" class="edge"><title>entropy&#45;&gt;hmac</title>
<path fill="none" stroke="black" stroke-width="1.75" d="M96.0377,-136C98.5335,-136 101.044,-136 103.547,-136"/>
<polygon fill="black" stroke="black" points="103.737,-139.5 113.737,-136 103.737,-132.5 103.737,-139.5"/>
</g>
<!-- private_key -->
<g id="node5" class="node"><title>private_key</title>
<polygon fill="none" stroke="black" stroke-width="1.75" points="371,-183 277,-183 277,-141 371,-141 371,-183"/>
<text text-anchor="middle" x="324" y="-166.4" font-family="Sans" font-size="14.00">Master</text>
<text text-anchor="middle" x="324" y="-149.4" font-family="Sans" font-size="14.00">Private Key</text>
</g>
<!-- hmac&#45;&gt;private_key -->
<g id="edge4" class="edge"><title>hmac&#45;&gt;private_key</title>
<path fill="none" stroke="black" stroke-width="1.75" d="M194.288,-142.162C215.852,-145.46 242.783,-149.579 266.509,-153.207"/>
<polygon fill="black" stroke="black" points="266.042,-156.677 276.457,-154.729 267.101,-149.757 266.042,-156.677"/>
<text text-anchor="middle" x="231" y="-156.4" font-family="Sans" font-size="14.00">256 Bits</text>
</g>
<!-- chain_code -->
<g id="node7" class="node"><title>chain_code</title>
<polygon fill="none" stroke="black" stroke-width="1.75" points="371,-127 277,-127 277,-85 371,-85 371,-127"/>
<text text-anchor="middle" x="324" y="-110.4" font-family="Sans" font-size="14.00">Master</text>
<text text-anchor="middle" x="324" y="-93.4" font-family="Sans" font-size="14.00">Chain Code</text>
</g>
<!-- hmac&#45;&gt;chain_code -->
<g id="edge6" class="edge"><title>hmac&#45;&gt;chain_code</title>
<path fill="none" stroke="black" stroke-width="1.75" d="M194.074,-125.147C198.81,-123.864 202,-123 202,-123 202,-123 234.754,-118.436 266.319,-114.038"/>
<polygon fill="black" stroke="black" points="267.061,-117.468 276.482,-112.621 266.095,-110.535 267.061,-117.468"/>
<text text-anchor="middle" x="231" y="-127.4" font-family="Sans" font-size="14.00">256 Bits</text>
</g>
<!-- public_key -->
<g id="node9" class="node"><title>public_key</title>
<polygon fill="none" stroke="black" stroke-width="1.75" points="476,-183 390,-183 390,-141 476,-141 476,-183"/>
<text text-anchor="middle" x="433" y="-166.4" font-family="Sans" font-size="14.00">Master</text>
<text text-anchor="middle" x="433" y="-149.4" font-family="Sans" font-size="14.00">Public Key</text>
</g>
<!-- private_key&#45;&gt;public_key -->
<g id="edge10" class="edge"><title>private_key&#45;&gt;public_key</title>
<path fill="none" stroke="black" stroke-width="1.75" stroke-dasharray="5,2" d="M371.809,-162C374.412,-162 377.035,-162 379.655,-162"/>
<polygon fill="black" stroke="black" points="379.69,-165.5 389.69,-162 379.69,-158.5 379.69,-165.5"/>
</g>
<!-- extended_private_key -->
<g id="node11" class="node"><title>extended_private_key</title>
<polygon fill="none" stroke="black" stroke-width="1.75" points="605,-99.5 511,-99.5 511,-40.5 605,-40.5 605,-99.5"/>
<text text-anchor="middle" x="558" y="-82.9" font-family="Sans" font-size="14.00">Master</text>
<text text-anchor="middle" x="558" y="-65.9" font-family="Sans" font-size="14.00">Extended</text>
<text text-anchor="middle" x="558" y="-48.9" font-family="Sans" font-size="14.00">Private Key</text>
</g>
<!-- private_key&#45;&gt;extended_private_key -->
<g id="edge16" class="edge"><title>private_key&#45;&gt;extended_private_key</title>
<path fill="none" stroke="black" stroke-width="1.75" d="M371.615,-141.8C382.023,-137.384 390,-134 390,-134 390,-134 452.085,-110.348 500.771,-91.8015"/>
<polygon fill="black" stroke="black" points="502.208,-94.9994 510.307,-88.1686 499.716,-88.4579 502.208,-94.9994"/>
</g>
<!-- chain_code&#45;&gt;extended_private_key -->
<g id="edge12" class="edge"><title>chain_code&#45;&gt;extended_private_key</title>
<path fill="none" stroke="black" stroke-width="1.75" d="M366.157,-84.9214C374.113,-80.9433 380,-78 380,-78 380,-78 492,-71 492,-71 492,-71 495.274,-70.9504 500.363,-70.8733"/>
<polygon fill="black" stroke="black" points="500.439,-74.3726 510.385,-70.7214 500.333,-67.3734 500.439,-74.3726"/>
</g>
<!-- extended_public_key -->
<g id="node12" class="node"><title>extended_public_key</title>
<polygon fill="none" stroke="black" stroke-width="1.75" points="601,-171.5 515,-171.5 515,-112.5 601,-112.5 601,-171.5"/>
<text text-anchor="middle" x="558" y="-154.9" font-family="Sans" font-size="14.00">Master</text>
<text text-anchor="middle" x="558" y="-137.9" font-family="Sans" font-size="14.00">Extended</text>
<text text-anchor="middle" x="558" y="-120.9" font-family="Sans" font-size="14.00">Public Key</text>
</g>
<!-- chain_code&#45;&gt;extended_public_key -->
<g id="edge14" class="edge"><title>chain_code&#45;&gt;extended_public_key</title>
<path fill="none" stroke="black" stroke-width="1.75" d="M371.635,-113.329C410.235,-119.267 464.599,-127.631 504.654,-133.793"/>
<polygon fill="black" stroke="black" points="504.353,-137.288 514.769,-135.349 505.417,-130.369 504.353,-137.288"/>
</g>
<!-- public_key&#45;&gt;extended_public_key -->
<g id="edge18" class="edge"><title>public_key&#45;&gt;extended_public_key</title>
<path fill="none" stroke="black" stroke-width="1.75" d="M476.018,-155.117C485.348,-153.624 495.321,-152.029 504.984,-150.482"/>
<polygon fill="black" stroke="black" points="505.581,-153.932 514.903,-148.896 504.475,-147.019 505.581,-153.932"/>
</g>
</g>
</svg>
